<svg width="97" height="100" viewBox="-7.658 0 97 97" version="1.1" xmlns="http://www.w3.org/2000/svg" xmlns:xlink="http://www.w3.org/1999/xlink" preserveAspectRatio="xMidYMid"><g><path d="M4.182 91.674c-1.661 0 -2.144 -0.967 -2.144 -2.415 0 -0.483 0.061 -1.027 0.135 -1.601 0.364 -2.506 1.251 -3.938 3.395 -3.938 1.449 0 2.156 0.648 2.156 1.826v0.574h1.439c0.016 0 0.016 -0.529 0.016 -0.649 0 -1.721 -1.042 -3.352 -3.608 -3.352 -3.487 0 -4.921 1.894 -5.449 5.609a9.7 9.7 0 0 0 -0.121 1.46c0 2.189 0.861 4.18 3.94 4.18 2.34 0 3.729 -1.141 4.543 -2.544l-1.374 -0.925c-0.89 1.405 -1.857 1.778 -2.928 1.778m9.435 -6.914c-2.794 0 -4 1.434 -4.408 4.285a7.76 7.76 0 0 0 -0.077 0.997c0 1.841 0.86 3.307 3.245 3.307 2.794 0 4.016 -1.495 4.424 -4.303 0.046 -0.362 0.076 -0.694 0.076 -1.026 0.001 -1.871 -0.889 -3.26 -3.26 -3.26m1.162 4.286c-0.303 2.069 -0.951 2.702 -2.174 2.702 -0.981 0 -1.464 -0.407 -1.464 -1.631 0 -0.303 0.031 -0.664 0.09 -1.072 0.303 -2.053 0.906 -2.687 2.144 -2.687 0.996 0 1.494 0.407 1.494 1.645q0 0.453 -0.09 1.042m9.119 -6.779 -0.468 2.771c-0.03 0.241 -0.015 0.161 0.077 0.387 -0.437 -0.332 -1.223 -0.551 -1.752 -0.551 -2.506 0 -3.909 1.134 -4.362 4.305a6.208 6.208 0 0 0 -0.076 1.012c0 2.311 1.358 3.172 3.185 3.172 0.771 0 1.525 0.016 2.114 -0.481l0.15 0.939h1.449l1.691 -11.553zm-1.434 9.043c-0.679 0.406 -1.342 0.499 -1.75 0.499 -1.102 0 -1.404 -0.574 -1.404 -1.494 0 -0.347 0.046 -0.754 0.107 -1.193 0.346 -2.4 1.116 -2.824 2.114 -2.824 0.648 0 1.147 0.107 1.615 0.364zm7.85 -6.551c-2.764 0 -4.06 1.312 -4.499 4.285a8.73 8.73 0 0 0 -0.077 1.042c0 2.038 1.042 3.261 3.336 3.261 1.782 0 3.111 -0.74 3.82 -2.099l-1.525 -0.619c-0.437 0.663 -1.026 1.116 -2.068 1.116 -1.116 0 -1.569 -0.301 -1.569 -1.297 0 -0.197 0.016 -0.482 0.046 -0.482h5.448c0.077 -0.77 0.166 -1.314 0.166 -1.766 0 -1.508 -0.573 -3.443 -3.079 -3.443m1.041 3.67h-3.318c0.333 -0.77 0.89 -1.962 2.038 -1.962 0.89 0 1.329 0.521 1.329 1.411 -0.001 0.151 -0.015 0.551 -0.046 0.551m7.846 -3.851 0.181 -1.54h-4.257l-0.18 1.54h1.116l-1.207 7.702h-1.118l-0.18 1.54h4.256l0.182 -1.54h-1.117l1.207 -7.702zm8.65 2.311 0.544 -1.54h-1.465l-1.055 0.218c-0.589 -0.376 -1.389 -0.66 -2.144 -0.66 -2.159 0 -4 1.043 -4 3.413a2.522 2.522 0 0 0 0.528 1.565c-0.452 0.241 -0.845 0.644 -0.845 1.189 0 0.242 0.09 0.488 0.272 0.714 -0.907 0.544 -1.464 1.446 -1.464 2.503 0 2.039 2.128 2.473 3.758 2.473 2.053 0 4.499 -0.469 4.499 -3.081 0 -0.89 -0.559 -1.586 -2.174 -1.888l-2.913 -0.544c-0.332 -0.061 -0.407 -0.167 -0.407 -0.317 0 -0.227 0.137 -0.346 0.363 -0.346l0.197 0.03c0.393 0.09 0.846 0.136 1.313 0.136 2.099 0 3.97 -0.906 3.97 -3.261 0 -0.333 -0.06 -0.558 -0.21 -0.921 0.256 0.121 0.589 0.317 0.724 0.317zm-4.151 6.249c0.573 0.107 0.769 0.317 0.769 0.695 0 1.223 -1.313 1.374 -2.264 1.374 -1.449 0 -1.992 -0.346 -1.992 -1.117 0 -0.68 0.196 -0.996 0.649 -1.479zm-0.621 -3.953c-0.876 0 -1.359 -0.316 -1.359 -1.072 0 -1.116 0.649 -1.766 1.782 -1.766 0.906 0 1.344 0.377 1.344 1.116 0 1.117 -0.634 1.722 -1.766 1.722m10.133 -4.423c-0.846 0 -1.6 0.415 -2.536 1.153l-0.136 -0.566h-1.662l-1.162 8.472h2.008l0.876 -6.424c0.589 -0.362 1.313 -0.888 1.932 -0.888 0.755 0 1.027 0.364 1.027 1.058 0 0.166 -0.016 0.659 -0.047 0.839l-0.739 5.415h2.008l0.739 -5.459a9.7 9.7 0 0 0 0.061 -0.917c0.001 -1.436 -0.679 -2.684 -2.37 -2.684m6.184 6.937 0.016 -0.208 0.875 -6.142h-3.336l-0.21 1.54h1.464c-0.121 0 -0.196 0.135 -0.21 0.256l-0.604 4.09a6.79 6.79 0 0 0 -0.045 0.771c0 1.056 0.573 1.813 1.75 1.813h1.027l0.227 -1.54h-0.649c-0.227 0 -0.302 -0.401 -0.302 -0.582m1.298 -9.43h-1.962c-0.121 0 -0.121 -0.444 -0.136 -0.294l-0.273 2.17c-0.016 0.137 -0.016 0.434 0.106 0.434h1.963c0.121 0 0.121 -0.528 0.136 -0.665l0.273 -1.675c0.016 -0.151 0.016 0.029 -0.107 0.029m4.094 9.482c-0.498 0 -0.739 -0.211 -0.739 -0.663l0.016 -0.031 0.634 -4.166h2.294l0.694 -1.54h-2.777l0.468 -3.389 -2.113 0.675 -0.378 2.714h-1.222l-0.21 1.54h1.418c-0.136 0.77 -0.272 0.271 -0.286 0.422l-0.544 3.653c-0.03 0.167 -0.03 0.287 -0.03 0.437 0 1.435 1.056 1.971 2.326 1.971 1.177 0 2.128 -0.343 2.868 -0.963l-0.936 -1.152c-0.469 0.286 -0.786 0.493 -1.48 0.493m7.366 -6.989c-2.763 0 -4.06 1.312 -4.499 4.285a8.73 8.73 0 0 0 -0.076 1.042c0 2.038 1.042 3.261 3.336 3.261 1.782 0 3.111 -0.74 3.82 -2.099l-1.524 -0.619c-0.437 0.663 -1.026 1.116 -2.069 1.116 -1.116 0 -1.569 -0.301 -1.569 -1.297 0 -0.197 0.016 -0.482 0.047 -0.482h5.448c0.076 -0.77 0.166 -1.314 0.166 -1.766 0 -1.508 -0.573 -3.443 -3.08 -3.443m1.042 3.67h-3.325c0.332 -0.77 0.889 -1.962 2.038 -1.962 0.89 0 1.329 0.521 1.329 1.411 -0.001 0.151 -0.016 0.551 -0.046 0.551m7.593 -3.67c-0.725 0 -1.404 0.415 -2.084 1.063l-0.12 -0.474h-1.66l-1.163 8.472h2.023l0.89 -6.56c0.529 -0.316 1.132 -0.587 1.706 -0.587 0.363 0 0.709 -0.058 1.041 -0.013l0.258 -1.75c-0.304 -0.06 -0.605 -0.15 -0.891 -0.15m-51.265 -8.557c-4.57 -1.975 -8.844 -6.995 -8.855 -12.131 -0.013 -5.6 3.537 -10.354 7.95 -13.478 -0.531 2.005 -0.82 3.838 0.495 5.632a5.325 5.325 0 0 0 5.383 2.038c4.722 -1.034 4.939 -6.225 2.14 -9.25 -2.768 -2.995 -5.446 -6.379 -4.392 -10.722 0.528 -2.178 1.864 -4.217 3.558 -5.674 -1.302 3.421 2.398 6.795 4.835 8.476 4.228 2.916 8.867 5.12 12.755 8.537 4.09 3.592 7.109 8.45 6.499 14.082 -0.661 6.106 -5.513 10.353 -10.955 12.497C60.441 73.667 72.323 64.742 72.567 51.987c0.202 -10.492 -6.997 -18.568 -15.913 -23.192l-0.466 -0.254c0.244 0.594 0.325 1.099 0.315 1.551a5.432 5.432 0 0 0 0.149 -1.03 5.044 5.044 0 0 1 -0.163 1.245l0.014 -0.214a5.238 5.238 0 0 1 -0.661 1.573l0.131 -0.141c-1.779 2.951 -6.595 3.591 -8.973 0.536 -3.825 -4.914 0.081 -10.213 0.627 -15.417 0.684 -6.522 -3.407 -12.854 -8.478 -16.643 2.794 4.518 -0.887 10.496 -3.831 13.838 -2.856 3.239 -6.327 5.944 -9.479 8.887 -3.385 3.161 -6.64 6.491 -9.423 10.202 -5.566 7.427 -8.973 16.767 -6.469 26.033 2.503 9.259 10.523 15.153 19.579 17.237" fill="#EE4323"/></g></svg>